<svg width="24" height="24" viewBox="0 0 24 24" fill="none"
xmlns="http://www.w3.org/2000/svg">
  <path d="M12 12C14.2091 12 16 10.2091 16 8C16 5.79086 14.2091 4 12 4C9.79086 4 8 5.79086 8 8C8 10.2091 9.79086 12 12 12Z"
        stroke="#e9a5b5" stroke-width="1.2"/>
  <path d="M5 20C5 16.6863 8.13401 14 12 14C15.866 14 19 16.6863 19 20"
        stroke="#e9a5b5" stroke-width="1.2"/>
  <path d="M18 4L18.5 5.5L20 6L18.5 6.5L18 8L17.5 6.5L16 6L17.5 5.5L18 4Z"
        stroke="#e9a5b5" stroke-width="1"/>
</svg>